<svg width="204" height="143" viewBox="0 0 204 143" fill="none" xmlns="http://www.w3.org/2000/svg">
<path fill-rule="evenodd" clip-rule="evenodd" d="M183 1.01939e-06C188.13 -0.00162239 193.071 1.9358 196.832 5.42389C200.594 8.91197 202.898 13.6929 203.283 18.8083L203.333 20.3333V122C203.335 127.13 201.398 132.071 197.909 135.832C194.421 139.594 189.64 141.898 184.525 142.283L183 142.333H20.3333C15.2035 142.335 10.2626 140.398 6.5011 136.909C2.73962 133.421 0.435575 128.64 0.0508355 123.525L1.01939e-06 122V20.3333C-0.00162239 15.2035 1.9358 10.2626 5.42389 6.5011C8.91197 2.73962 13.6929 0.435575 18.8083 0.0508355L20.3333 1.01939e-06H183ZM152.53 20.3333H50.8028L50.8333 21.6042C50.8333 25.4426 50.0773 29.2434 48.6084 32.7897C47.1395 36.3359 44.9865 39.5581 42.2723 42.2723C39.5581 44.9865 36.3359 47.1395 32.7897 48.6084C29.2434 50.0773 25.4426 50.8333 21.6042 50.8333L20.3333 50.8028V91.5305L21.6042 91.5C29.3562 91.5 36.7908 94.5795 42.2723 100.061C47.7538 105.543 50.8333 112.977 50.8333 120.729L50.8028 122H152.53L152.5 120.729C152.5 113.275 155.348 106.102 160.462 100.678C165.576 95.254 172.569 91.989 180.011 91.5508L182.37 91.5102L183 91.5305V50.8028L181.729 50.8333C174.275 50.8333 167.102 47.9849 161.678 42.871C156.254 37.7571 152.989 30.764 152.551 23.3223L152.5 20.9637L152.53 20.3333ZM181.729 111.833C180.454 111.833 179.193 112.108 178.033 112.638C176.872 113.168 175.84 113.941 175.005 114.906C174.17 115.87 173.552 117.002 173.193 118.227C172.834 119.451 172.743 120.737 172.925 122H183V111.925C182.579 111.868 182.154 111.837 181.729 111.833ZM21.6042 111.833C21.1791 111.837 20.7546 111.868 20.3333 111.925V122H30.4085C30.5907 120.737 30.4993 119.451 30.1404 118.227C29.7816 117.002 29.1637 115.87 28.3286 114.906C27.4936 113.941 26.4609 113.168 25.3007 112.638C24.1404 112.108 22.8798 111.833 21.6042 111.833ZM101.667 30.5C112.452 30.5 122.796 34.7845 130.422 42.411C138.049 50.0375 142.333 60.3812 142.333 71.1667C142.333 81.9521 138.049 92.2959 130.422 99.9223C122.796 107.549 112.452 111.833 101.667 111.833C90.8812 111.833 80.5375 107.549 72.911 99.9223C65.2845 92.2959 61 81.9521 61 71.1667C61 60.3812 65.2845 50.0375 72.911 42.411C80.5375 34.7845 90.8812 30.5 101.667 30.5ZM101.667 50.8333C96.2739 50.8333 91.1021 52.9756 87.2888 56.7888C83.4756 60.6021 81.3333 65.7739 81.3333 71.1667C81.3333 76.5594 83.4756 81.7313 87.2888 85.5445C91.1021 89.3577 96.2739 91.5 101.667 91.5C107.059 91.5 112.231 89.3577 116.044 85.5445C119.858 81.7313 122 76.5594 122 71.1667C122 65.7739 119.858 60.6021 116.044 56.7888C112.231 52.9756 107.059 50.8333 101.667 50.8333ZM30.4085 20.3333H20.3333V30.4085C21.5958 30.5907 22.8828 30.4993 24.1068 30.1404C25.3309 29.7816 26.4635 29.1637 27.4278 28.3286C28.392 27.4936 29.1654 26.4609 29.6955 25.3007C30.2256 24.1404 30.5 22.8798 30.5 21.6042L30.4797 20.9637L30.4085 20.3333ZM183 20.3333H172.925C172.743 21.5958 172.834 22.8828 173.193 24.1068C173.552 25.3309 174.17 26.4635 175.005 27.4278C175.84 28.392 176.872 29.1654 178.033 29.6955C179.193 30.2256 180.454 30.5 181.729 30.5L182.37 30.4797L183 30.3983V20.3333Z" fill="#005EFF"/>
</svg>
