<svg width="72" height="99" viewBox="0 0 72 99" fill="none" xmlns="http://www.w3.org/2000/svg">
<path d="M36.3208 74.27C27.9054 74.27 21.0571 67.6129 21.0571 59.4324C21.0571 51.2519 27.9054 44.5947 36.3208 44.5947C44.7362 44.5947 51.5845 51.2519 51.5845 59.4324C51.5845 67.6129 44.7362 74.27 36.3208 74.27ZM36.3208 49.5406C30.7089 49.5406 26.145 53.9771 26.145 59.4324C26.145 64.8877 30.7089 69.3242 36.3208 69.3242C41.9327 69.3242 46.4966 64.8877 46.4966 59.4324C46.4966 53.9771 41.9327 49.5406 36.3208 49.5406Z" fill="#005EFF"/>
<path d="M66.3601 10.2508L65.4596 6.75403C64.498 3.01494 60.6362 0.0820312 56.6677 0.0820312H15.9646C11.996 0.0820312 8.13939 3.01494 7.17269 6.75403L6.27213 10.2508C3.06167 11.1262 0.695801 13.9948 0.695801 17.3926V22.3385C0.695801 25.6176 2.89377 28.4022 5.93124 29.3815L10.5154 91.7689C10.8105 95.7553 14.3924 98.9998 18.5034 98.9998H54.1187C58.2297 98.9998 61.8116 95.7553 62.1067 91.7689L66.6908 29.3815C69.7283 28.4022 71.9263 25.6176 71.9263 22.3385V17.3926C71.9263 13.9948 69.5655 11.1262 66.35 10.2508H66.3601ZM15.9697 5.02792H56.6728C58.2958 5.02792 60.1325 6.42266 60.5243 7.95094L61.0433 9.9738H11.5941L12.113 7.95094C12.5048 6.42266 14.3466 5.02792 15.9697 5.02792ZM61.2112 34.7032H11.4363L11.0751 29.7573H61.5775L61.2112 34.7032ZM57.9397 79.2162H14.7079L11.8027 39.6491H60.8499L57.9448 79.2162H57.9397ZM54.1288 94.0539H18.5136C17.0381 94.0539 15.7051 92.8471 15.5982 91.4177L15.064 84.1621H57.5733L57.0391 91.4177C56.9323 92.8471 55.5992 94.0539 54.1237 94.0539H54.1288ZM66.8486 22.3385C66.8486 23.7036 65.7089 24.8115 64.3046 24.8115H8.33781C6.93356 24.8115 5.79387 23.7036 5.79387 22.3385V17.3926C5.79387 16.0325 6.93356 14.9246 8.33273 14.9197H8.3429C8.3429 14.9197 8.35308 14.9197 8.35817 14.9197H64.3097C65.714 14.9197 66.8537 16.0276 66.8537 17.3926L66.8486 22.3385Z" fill="#3C61FF"/>
</svg>
