<svg width="85" height="90" viewBox="0 0 85 90" fill="none" xmlns="http://www.w3.org/2000/svg">
<path d="M80.5263 75V80C80.5263 85.5 76.5 90 71.5789 90H8.94737C3.98158 90 0 85.5 0 80V10C0 4.5 3.98158 0 8.94737 0H71.5789C76.5 0 80.5263 4.5 80.5263 10V15H40.2632C35.2974 15 31.3158 19.5 31.3158 25V65C31.3158 70.5 35.2974 75 40.2632 75H80.5263ZM40.2632 65H85V25H40.2632V65ZM58.1579 52.5C54.4447 52.5 51.4474 49.15 51.4474 45C51.4474 40.85 54.4447 37.5 58.1579 37.5C61.8711 37.5 64.8684 40.85 64.8684 45C64.8684 49.15 61.8711 52.5 58.1579 52.5Z" fill="white"/>
</svg>
